# xmcd CD database file
#
# Track frame offsets:
#	150
#	33051
#	80869
#	104784
#	129149
#
# Disc length: 2362 seconds
#
# Revision: 1
# Processed by: cddbd v1.5.2PL0 Copyright (c) Steve Scherf et al.
# Submitted via: CDex 1.77
#
DISCID=39093805
DTITLE=Charles Lloyd - Forest Flower
DYEAR=1967
DGENRE=Jazz
TTITLE0=Forest Flower-Sunrise
TTITLE1=Forest Flower-Sunset
TTITLE2=Sorcery
TTITLE3=Song Of Her
TTITLE4=East Of The Sun
EXTD=YEAR: 1967
EXTT0=
EXTT1=
EXTT2=
EXTT3=
EXTT4=
PLAYORDER=
